<svg width="24" height="24" viewBox="0 0 24 24" fill="none" xmlns="http://www.w3.org/2000/svg">
<path fill-rule="evenodd" clip-rule="evenodd" d="M15.6691 7.27985C15.6691 7.27985 18.3057 1.58537 18.7939 0.932564C19.2822 0.279755 20.747 0.0844532 21.6746 0.572694C22.6023 1.06094 23.0417 2.64144 22.4558 3.47147C21.9871 4.1355 19.3961 7.55652 18.1592 9.18403L15.6691 7.27985ZM20.454 3.55104C21.0203 3.55104 21.4793 3.09198 21.4793 2.5257C21.4793 1.95943 21.0203 1.50037 20.454 1.50037C19.8877 1.50037 19.4287 1.95943 19.4287 2.5257C19.4287 3.09198 19.8877 3.55104 20.454 3.55104Z" fill="#CE800D"/>
<path d="M7.31996 22.0557C4.34162 20.2492 2.60018 18.6054 1.26562 17.3196C1.68878 17.0104 2.91862 16.4757 3.90219 15.8061C6.19698 14.2437 6.58758 13.1695 8.34529 11.7047C9.75146 10.5329 11.698 9.88193 12.4954 9.7029L13.3743 8.28697C13.6107 7.08148 14.9713 6.49253 15.9948 7.17197C16.6377 7.59881 17.2949 8.04253 17.8933 8.44991C19.0307 9.2243 19.0361 10.878 17.9866 11.7678C17.5556 12.1332 17.212 12.4604 17.1338 12.6324C16.8897 13.1695 16.7921 15.3178 16.2062 17.8079C15.8076 19.5019 13.8137 22.43 12.7884 23.6669C11.6491 23.4228 8.84602 22.9813 7.31996 22.0557Z" fill="#F0CC1E"/>
<path d="M2.99005 18.9136C3.96991 18.5033 5.51851 17.7939 6.01805 17.3713C6.1288 17.2775 6.24103 17.1809 6.35189 17.0854L6.35205 17.0852C6.87654 16.6334 7.37043 16.208 7.53163 16.2483C7.72694 16.2971 7.92224 16.3947 7.62929 16.7853C7.34187 17.1686 5.08059 19.4316 3.93471 19.7015C3.5972 19.4315 3.2836 19.1686 2.99005 18.9136Z" fill="#CE800D"/>
<path d="M10.2815 23.1373C11.1848 22.2733 12.2107 19.4936 12.3078 19.0444C12.411 18.5672 12.1928 18.56 11.9949 18.5971C11.8316 18.6278 11.5604 19.2205 11.2723 19.85C11.2114 19.9831 11.1497 20.1179 11.0882 20.2493C10.8233 20.815 9.79873 22.0169 9.08062 22.805C9.47544 22.9297 9.88283 23.0398 10.2815 23.1373Z" fill="#CE800D"/>
<path d="M6.70121 21.6718C7.76778 21.23 9.58296 18.5107 9.7924 18.0736C10.0034 17.6333 9.79277 17.5756 9.59169 17.5659C9.42571 17.5579 9.02448 18.0716 8.59838 18.6172C8.50827 18.7326 8.41705 18.8494 8.3267 18.963C7.92892 19.4632 6.60336 20.4269 5.72113 21.0249C6.03116 21.2376 6.35734 21.4534 6.70121 21.6718Z" fill="#CE800D"/>
<rect width="7.88345" height="2.36531" rx="1.18266" transform="matrix(0.840993 0.541046 -0.541045 0.840994 12.5743 7.55469)" fill="#EF2030"/>
</svg>
